# xmcd CD database file generated by OrangeCD 6.0
#
# Track frame offsets:
#	150
#	10801
#	30301
#	43575
#	56849
#	79723
#	96898
#	112723
#	130423
#	142723
#	154647
#	166797
#	188472
#	202114
#	221095
#	231560
#	240816
#	254251
#	267480
#	282937
#	296021
#	309538
#	324597
#	336147
#
# Disc length: 4681 seconds
#
# Revision: 0
# Processed by: cddbd v1.5.2PL0 Copyright (c) Steve Scherf et al.
# Submitted via: OrangeCD 6.0
#
DISCID=4c124718
DTITLE=Fleetwood Mac - Mr. Wonderful - Peter Green's Fleetwood Mac
DYEAR=1968
DGENRE=
TTITLE0=Stop Messin' Round
TTITLE1=I've lost my baby
TTITLE2=Rollin' Man
TTITLE3=Dust my broom
TTITLE4=Love that burns
TTITLE5=Doctor Brown
TTITLE6=Need your love tonight
TTITLE7=If you be my baby
TTITLE8=Evenin' Boogie
TTITLE9=Lazy poker blues
TTITLE10=Coming Home
TTITLE11=Trying so hard to forget
TTITLE12=MY HEART BEAT LIKE A HAMMER
TTITLE13=MERRY GO ROUND
TTITLE14=LONG GREY MARE
TTITLE15=HELLBOUND ON MY TRAIL
TTITLE16=SHAKE YOUR MONEY MAKER
TTITLE17=LOOKING FOR SOMEBODY
TTITLE18=NO PLACE TO GO
TTITLE19=MY BABY'S GOOD TO ME
TTITLE20=I LOVED ANOTHER WOMAN
TTITLE21=COLD BLACK NIGHT
TTITLE22=THE WORLD KEEP ON TURNING
TTITLE23=GOT TO MOVE
EXTD=
EXTT0=
EXTT1=
EXTT2=
EXTT3=
EXTT4=
EXTT5=
EXTT6=
EXTT7=
EXTT8=
EXTT9=
EXTT10=
EXTT11=
EXTT12=
EXTT13=
EXTT14=
EXTT15=
EXTT16=
EXTT17=
EXTT18=
EXTT19=
EXTT20=
EXTT21=
EXTT22=
EXTT23=
PLAYORDER=
